<svg xmlns="http://www.w3.org/2000/svg" viewBox="0 0 294.18 288.79"><defs><style>.cls-1{fill:#d7e9f9;}.cls-2{fill:#afd3f3;}.cls-3,.cls-4{fill:none;stroke:#256093;}.cls-3{stroke-width:5px;}.cls-4{stroke-width:3px;}.cls-5{fill:#f3fcff;}.cls-6{fill:#3892e0;}</style></defs><g id="Layer_2" data-name="Layer 2"><g id="Layer_4" data-name="Layer 4"><path class="cls-1" d="M291.68,96.45a68.64,68.64,0,0,0-82.38-67.2A68.6,68.6,0,0,0,97.63,32.14,37,37,0,0,0,46.39,79.76H45.14a42.64,42.64,0,1,0,0,85.27H226.8v-.1A68.58,68.58,0,0,0,291.68,96.45Z"/><path class="cls-2" d="M291.68,96.45a68.57,68.57,0,0,1-64.88,68.47V165H45.14a42.44,42.44,0,0,1-30.48-12.84,41.63,41.63,0,0,0,11.94,1.72H208.26v-.11a68.58,68.58,0,0,0,40.36-121A68.62,68.62,0,0,1,291.68,96.45Z"/><path class="cls-3" d="M204.93,165.63H226.8v-.1A68.59,68.59,0,1,0,209.31,29.84,68.6,68.6,0,0,0,97.64,32.73,37.08,37.08,0,0,0,46.38,80.36H45.14a42.64,42.64,0,1,0,0,85.27H89.25"/><line class="cls-4" x1="147.09" y1="236.74" x2="147.09" y2="271.44"/><polyline class="cls-4" points="123.96 236.74 123.96 256.98 107.08 273.85"/><polyline class="cls-4" points="187.1 273.85 170.22 256.98 170.22 236.74"/><line class="cls-4" x1="102.27" y1="248.3" x2="102.27" y2="236.74"/><line class="cls-4" x1="191.91" y1="248.3" x2="191.91" y2="236.74"/><line class="cls-4" x1="147.09" y1="121.06" x2="147.09" y2="86.36"/><polyline class="cls-4" points="170.22 121.06 170.22 100.82 187.1 83.95"/><polyline class="cls-4" points="107.08 83.95 123.96 100.82 123.96 121.06"/><line class="cls-4" x1="191.91" y1="109.5" x2="191.91" y2="121.06"/><line class="cls-4" x1="102.27" y1="109.5" x2="102.27" y2="121.06"/><line class="cls-4" x1="204.93" y1="178.9" x2="239.63" y2="178.9"/><polyline class="cls-4" points="204.93 202.03 225.17 202.03 242.04 218.91"/><polyline class="cls-4" points="242.04 138.89 225.17 155.77 204.93 155.77"/><line class="cls-4" x1="216.49" y1="223.72" x2="204.93" y2="223.72"/><line class="cls-4" x1="216.49" y1="134.08" x2="204.93" y2="134.08"/><line class="cls-4" x1="89.25" y1="178.9" x2="54.55" y2="178.9"/><polyline class="cls-4" points="89.25 155.77 69.01 155.77 52.14 138.89"/><polyline class="cls-4" points="52.14 218.91 69.01 202.03 89.25 202.03"/><line class="cls-4" x1="77.69" y1="134.08" x2="89.25" y2="134.08"/><line class="cls-4" x1="77.69" y1="223.72" x2="89.25" y2="223.72"/><rect class="cls-5" x="89.25" y="121.06" width="115.67" height="115.67" rx="3.92"/><path class="cls-2" d="M204.93,126.85V231a5.79,5.79,0,0,1-5.79,5.79h-8.67a5.78,5.78,0,0,0,5.78-5.79V126.85a5.78,5.78,0,0,0-5.78-5.79h8.67A5.79,5.79,0,0,1,204.93,126.85Z"/><rect class="cls-3" x="89.25" y="121.06" width="115.67" height="115.67" rx="3.92"/><rect class="cls-5" x="105.16" y="136.97" width="83.86" height="83.86"/><rect class="cls-2" x="176.01" y="136.97" width="13.01" height="83.86"/><rect class="cls-3" x="105.16" y="136.97" width="83.86" height="83.86"/><rect class="cls-2" x="116.73" y="148.54" width="14.46" height="14.46"/><circle class="cls-6" cx="147.09" cy="280.11" r="8.68"/><circle class="cls-6" cx="193.36" cy="280.11" r="8.68"/><circle class="cls-6" cx="100.82" cy="280.11" r="8.68"/><circle class="cls-6" cx="147.09" cy="77.69" r="8.68"/><circle class="cls-6" cx="100.82" cy="77.69" r="8.68"/><circle class="cls-6" cx="193.36" cy="77.69" r="8.68"/><circle class="cls-6" cx="248.3" cy="178.9" r="8.68"/><circle class="cls-6" cx="248.3" cy="132.63" r="8.68"/><circle class="cls-6" cx="248.3" cy="225.17" r="8.68"/><circle class="cls-6" cx="45.88" cy="178.9" r="8.68"/><circle class="cls-6" cx="45.88" cy="225.17" r="8.68"/><circle class="cls-6" cx="45.88" cy="132.63" r="8.68"/></g></g></svg>