<svg xmlns="http://www.w3.org/2000/svg" viewBox="0 0 286.92 291.88"><defs><style>.cls-1{fill:#d7e9f9;}.cls-2{fill:#fff;}.cls-3{fill:#b2dbf7;}.cls-4,.cls-7{fill:none;stroke:#256093;stroke-linecap:round;stroke-linejoin:round;}.cls-4{stroke-width:5px;}.cls-5{fill:#60a8e6;}.cls-6{fill:#3892e0;}.cls-7{stroke-width:3px;}</style></defs><g id="Layer_2" data-name="Layer 2"><g id="Layer_4" data-name="Layer 4"><rect class="cls-1" x="56.74" y="63.79" width="173.45" height="173.45" transform="translate(148.45 -57.36) rotate(45)"/><polygon class="cls-2" points="34.1 150.52 150.1 34.51 143.46 27.87 20.81 150.52 143.46 273.16 150.1 266.52 34.1 150.52"/><polygon class="cls-3" points="143.46 27.87 133.52 37.81 246.22 150.52 133.52 263.22 143.46 273.16 266.1 150.52 143.46 27.87"/><rect class="cls-4" x="56.74" y="63.79" width="173.45" height="173.45" transform="translate(148.45 -57.36) rotate(45)"/><polygon class="cls-5" points="42.27 188.19 2.5 169.54 2.5 122.53 42.27 141.18 42.27 188.19"/><polygon class="cls-5" points="42.27 188.19 82.04 169.54 82.04 122.53 42.27 141.18 42.27 188.19"/><polygon class="cls-6" points="72.04 127.01 72.04 174.02 82.04 169.54 82.04 122.53 72.04 127.01"/><polygon class="cls-5" points="42.27 103.69 2.5 122.53 42.27 141.18 82.04 122.53 42.27 103.69"/><polygon class="cls-4" points="42.27 188.19 82.04 169.54 82.04 122.53 42.27 141.18 42.27 188.19"/><polygon class="cls-4" points="42.27 103.69 2.5 122.53 42.27 141.18 82.04 122.53 42.27 103.69"/><polygon class="cls-4" points="42.27 188.19 2.5 169.54 2.5 122.53 42.27 141.18 42.27 188.19"/><polygon class="cls-5" points="143.46 87 103.69 68.35 103.69 21.34 143.46 39.99 143.46 87"/><polygon class="cls-5" points="143.46 87 183.23 68.35 183.23 21.34 143.46 39.99 143.46 87"/><polygon class="cls-6" points="173.23 25.82 173.23 72.83 183.23 68.35 183.23 21.34 173.23 25.82"/><polygon class="cls-5" points="143.46 2.5 103.69 21.34 143.46 39.99 183.23 21.34 143.46 2.5"/><polygon class="cls-4" points="143.46 87 183.23 68.35 183.23 21.34 143.46 39.99 143.46 87"/><polygon class="cls-4" points="143.46 2.5 103.69 21.34 143.46 39.99 183.23 21.34 143.46 2.5"/><polygon class="cls-4" points="143.46 87 103.69 68.35 103.69 21.34 143.46 39.99 143.46 87"/><polygon class="cls-5" points="143.46 289.38 103.69 270.73 103.69 223.72 143.46 242.37 143.46 289.38"/><polygon class="cls-5" points="143.46 289.38 183.23 270.73 183.23 223.72 143.46 242.37 143.46 289.38"/><polygon class="cls-6" points="173.23 228.2 173.23 275.21 183.23 270.73 183.23 223.72 173.23 228.2"/><polygon class="cls-5" points="143.46 204.88 103.69 223.72 143.46 242.37 183.23 223.72 143.46 204.88"/><polygon class="cls-4" points="143.46 289.38 183.23 270.73 183.23 223.72 143.46 242.37 143.46 289.38"/><polygon class="cls-4" points="143.46 204.88 103.69 223.72 143.46 242.37 183.23 223.72 143.46 204.88"/><polygon class="cls-4" points="143.46 289.38 103.69 270.73 103.69 223.72 143.46 242.37 143.46 289.38"/><polygon class="cls-5" points="244.65 188.19 204.88 169.54 204.88 122.53 244.65 141.18 244.65 188.19"/><polygon class="cls-5" points="244.65 188.19 284.42 169.54 284.42 122.53 244.65 141.18 244.65 188.19"/><polygon class="cls-6" points="274.42 127.01 274.42 174.02 284.42 169.54 284.42 122.53 274.42 127.01"/><polygon class="cls-5" points="244.65 103.69 204.88 122.53 244.65 141.18 284.42 122.53 244.65 103.69"/><polygon class="cls-4" points="244.65 188.19 284.42 169.54 284.42 122.53 244.65 141.18 244.65 188.19"/><polygon class="cls-4" points="244.65 103.69 204.88 122.53 244.65 141.18 284.42 122.53 244.65 103.69"/><polygon class="cls-4" points="244.65 188.19 204.88 169.54 204.88 122.53 244.65 141.18 244.65 188.19"/><line class="cls-7" x1="244.65" y1="49.32" x2="204.78" y2="89.19"/><line class="cls-7" x1="82.09" y1="211.89" x2="42.22" y2="251.76"/><line class="cls-7" x1="244.65" y1="251.76" x2="204.78" y2="211.89"/><line class="cls-7" x1="82.09" y1="89.19" x2="42.22" y2="49.32"/><circle class="cls-5" cx="42.27" cy="49.32" r="10.2"/><circle class="cls-7" cx="42.27" cy="49.32" r="10.2"/><circle class="cls-5" cx="244.65" cy="49.32" r="10.2"/><circle class="cls-7" cx="244.65" cy="49.32" r="10.2"/><circle class="cls-5" cx="42.27" cy="251.76" r="10.2"/><circle class="cls-7" cx="42.27" cy="251.76" r="10.2"/><circle class="cls-5" cx="244.65" cy="251.76" r="10.2"/><circle class="cls-7" cx="244.65" cy="251.76" r="10.2"/><path class="cls-5" d="M122.29,186.16a23.86,23.86,0,0,1-22.38-38l13.47-17.88a23.8,23.8,0,0,1,14.28-9,4.7,4.7,0,1,1,1.88,9.22,14.38,14.38,0,0,0-8.65,5.44l-13.48,17.87a14.47,14.47,0,0,0,23.11,17.41L144,153.35a14.43,14.43,0,0,0,2.85-9.82,4.7,4.7,0,1,1,9.38-.73A23.89,23.89,0,0,1,151.5,159L138,176.88A23.72,23.72,0,0,1,122.29,186.16Z"/><path class="cls-5" d="M159,170.65a4.7,4.7,0,0,1-1.59-9.26,14.39,14.39,0,0,0,8.66-5.45l13.47-17.87a14.46,14.46,0,1,0-23.1-17.41l-13.47,17.88a14.36,14.36,0,0,0-2.85,9.82,4.7,4.7,0,0,1-9.38.72,23.8,23.8,0,0,1,4.72-16.2L148.89,115A23.87,23.87,0,1,1,187,143.73L173.54,161.6a23.82,23.82,0,0,1-14.29,9Z"/><path class="cls-6" d="M151.16,138.47a4.72,4.72,0,0,0-2.31.85,4.7,4.7,0,0,1,3.13,4.07,23.81,23.81,0,0,1-4.71,16.21L133.8,177.48a23.73,23.73,0,0,1-13.64,8.88c.71,0,1.42-.1,2.13-.2A23.72,23.72,0,0,0,138,176.88L151.5,159a23.89,23.89,0,0,0,4.72-16.21A4.72,4.72,0,0,0,151.16,138.47Z"/><path class="cls-6" d="M182.31,110.3a23.67,23.67,0,0,0-17.68-4.57,24.49,24.49,0,0,0-3.54.77,23.86,23.86,0,0,1,18.77,38.23l-13.47,17.88a23.77,23.77,0,0,1-10,7.68,4.69,4.69,0,0,0,2.55.36l.29-.05a23.82,23.82,0,0,0,14.29-9L187,143.73a23.86,23.86,0,0,0-4.7-33.43Z"/><path class="cls-4" d="M122.29,186.16a23.86,23.86,0,0,1-22.38-38l13.47-17.88a23.8,23.8,0,0,1,14.28-9,4.7,4.7,0,1,1,1.88,9.22,14.38,14.38,0,0,0-8.65,5.44l-13.48,17.87a14.47,14.47,0,0,0,23.11,17.41L144,153.35a14.43,14.43,0,0,0,2.85-9.82,4.7,4.7,0,1,1,9.38-.73A23.89,23.89,0,0,1,151.5,159L138,176.88A23.72,23.72,0,0,1,122.29,186.16Z"/><path class="cls-4" d="M159,170.65a4.7,4.7,0,0,1-1.59-9.26,14.39,14.39,0,0,0,8.66-5.45l13.47-17.87a14.46,14.46,0,1,0-23.1-17.41l-13.47,17.88a14.36,14.36,0,0,0-2.85,9.82,4.7,4.7,0,0,1-9.38.72,23.8,23.8,0,0,1,4.72-16.2L148.89,115A23.87,23.87,0,1,1,187,143.73L173.54,161.6a23.82,23.82,0,0,1-14.29,9Z"/></g></g></svg>