<svg xmlns="http://www.w3.org/2000/svg" viewBox="0 0 164.51 187.31">
    <defs>
        <style>
            .cls-1 {
                fill: #ec7600;
            }
        </style>
    </defs>
    <g id="Layer_2" data-name="Layer 2">
        <g id="Layer_1-2" data-name="Layer 1">
            <polygon class="cls-1"
                points="29.14 172.27 29.14 179.82 157.02 179.82 157.02 25.8 146 25.8 146 18.3 160.76 18.3 164.51 18.3 164.51 22.05 164.51 183.57 164.51 187.31 160.76 187.31 25.4 187.31 21.65 187.31 21.65 183.57 21.65 172.27 29.14 172.27" />
            <path class="cls-1" d="M134.87,7.49H7.49v153.6H134.87V7.49ZM3.75,0H142.36V168.58H0V0Z" />
            <rect class="cls-1" x="29.97" y="26.22" width="82.42" height="7.49" />
            <rect class="cls-1" x="29.97" y="116.13" width="82.42" height="7.49" />
            <rect class="cls-1" x="29.97" y="138.61" width="82.42" height="7.49" />
            <path class="cls-1"
                d="M33.72,59.94a15,15,0,1,1-10.6,4.39,14.94,14.94,0,0,1,10.6-4.39ZM39,69.63a7.47,7.47,0,1,0,2.2,5.29A7.43,7.43,0,0,0,39,69.63Z" />
            <path class="cls-1"
                d="M71.18,78.67a15,15,0,1,1-10.6,4.39,14.93,14.93,0,0,1,10.6-4.39Zm5.3,9.69a7.5,7.5,0,1,0,2.19,5.3A7.47,7.47,0,0,0,76.48,88.36Z" />
            <path class="cls-1"
                d="M108.64,48.7a15,15,0,1,1-10.59,4.39,14.95,14.95,0,0,1,10.59-4.39Zm5.3,9.69a7.5,7.5,0,1,0,2.19,5.3A7.47,7.47,0,0,0,113.94,58.39Z" />
            <polygon class="cls-1" points="43.16 75.48 62.36 87.23 58.47 93.61 39.26 81.86 43.16 75.48" />
            <polygon class="cls-1" points="105.61 71.95 82.97 90.44 78.25 84.64 100.9 66.15 105.61 71.95" />
        </g>
    </g>
</svg>