<svg xmlns="http://www.w3.org/2000/svg" viewBox="0 0 36.36 48">
    <defs>
        <style>
            .cls-1 {
                fill: #ec7600;
            }
        </style>
    </defs>
    <g id="Layer_2" data-name="Layer 2">
        <g id="layer_1-2" data-name="layer 1">
            <path class="cls-1"
                d="M1.46,17.82a.73.73,0,0,0-.72-.74.71.71,0,0,0-.74.71v.39a18.3,18.3,0,0,0,.33,3.47.74.74,0,0,0,.71.59l.14,0a.73.73,0,0,0,.58-.85,17,17,0,0,1-.31-3.19Z" />
            <path class="cls-1"
                d="M1.24,13.91l.21,0a.71.71,0,0,0,.69-.52,18.25,18.25,0,0,1,.63-1.75A16.73,16.73,0,0,1,30,6.38a.73.73,0,0,0,1,0,.74.74,0,0,0,0-1A18.16,18.16,0,0,0,.75,13,.71.71,0,0,0,1.24,13.91Z" />
            <path class="cls-1"
                d="M33.94,9.11a.73.73,0,1,0-1.26.72A16.73,16.73,0,0,1,4.09,27.2a17,17,0,0,1-.91-1.61.73.73,0,0,0-1-.34.74.74,0,0,0-.33,1c.3.6.64,1.19,1,1.76a18.19,18.19,0,0,0,3.92,4.36V47.27a.73.73,0,0,0,.35.63.74.74,0,0,0,.72,0l10.32-5.63L28.5,47.91a.73.73,0,0,0,.35.09.82.82,0,0,0,.37-.1.73.73,0,0,0,.35-.63V41.85a.72.72,0,0,0-.72-.73.73.73,0,0,0-.73.73v4.2l-3.88-2.12V35.3a18.42,18.42,0,0,0,3.88-1.91V38a.73.73,0,0,0,.73.73.73.73,0,0,0,.72-.73V32.33A18.16,18.16,0,0,0,33.94,9.11Zm-11.15,34-4.26-2.32a.73.73,0,0,0-.7,0l-4.25,2.32V37.71a.73.73,0,0,0-1.46,0v6.22L8.24,46.05V33.41a18.07,18.07,0,0,0,14.55,2.34Z" />
            <path class="cls-1"
                d="M31.05,14.83l-2-1.88-.22-2.74a.74.74,0,0,0-.51-.64L25.7,8.75,24.32,6.38A.73.73,0,0,0,23.58,6l-2.72.39L18.59,4.89a.72.72,0,0,0-.82,0L15.5,6.42,12.78,6a.71.71,0,0,0-.73.35L10.66,8.75,8,9.57a.76.76,0,0,0-.51.64L7.31,13l-2,1.88a.71.71,0,0,0-.18.79l.68,1.76.31.8-1,2.56a.73.73,0,0,0,.18.8l2,1.87.22,2.74a.75.75,0,0,0,.51.64l2.62.82L12.05,30a.72.72,0,0,0,.73.36l2.72-.4,2.27,1.54a.76.76,0,0,0,.82,0l2.27-1.54,2.72.4a.76.76,0,0,0,.74-.36l1.38-2.37,2.62-.82a.73.73,0,0,0,.51-.64l.24-3a.73.73,0,0,0-.67-.78.75.75,0,0,0-.78.67l-.2,2.53L25,26.31a.7.7,0,0,0-.41.32l-1.28,2.2-2.51-.37a.74.74,0,0,0-.52.12L18.18,30l-2.1-1.42a.78.78,0,0,0-.51-.12l-2.51.37-1.29-2.2a.7.7,0,0,0-.41-.32l-2.42-.76L8.74,23a.66.66,0,0,0-.23-.47L6.66,20.81l.92-2.37a.77.77,0,0,0,0-.52l-.41-1.07-.51-1.3,1.85-1.73a.69.69,0,0,0,.23-.48l.2-2.52,2.42-.76a.75.75,0,0,0,.41-.33l1.29-2.19,2.51.36a.72.72,0,0,0,.51-.11l2.1-1.42,2.1,1.42a.73.73,0,0,0,.52.11l2.51-.36,1.28,2.19a.75.75,0,0,0,.41.33l2.42.76.2,2.52a.78.78,0,0,0,.23.48l1.85,1.73-.92,2.37a.77.77,0,0,0,0,.52l.51,1.31a.72.72,0,0,0,.68.46.82.82,0,0,0,.26,0,.74.74,0,0,0,.42-.94l-.41-1.05,1-2.56A.71.71,0,0,0,31.05,14.83Z" />
            <path class="cls-1" d="M19.69,13a.72.72,0,0,0-1-1l-6.49,6.48a.74.74,0,0,0,0,1,.71.71,0,0,0,1,0Z" />
            <path class="cls-1"
                d="M13.55,24.7a.74.74,0,0,0,.51-.22L24.91,13.63a.72.72,0,0,0-1-1L13,23.45a.74.74,0,0,0,.52,1.25Z" />
        </g>
    </g>
</svg>