<svg xmlns="http://www.w3.org/2000/svg" viewBox="0 0 63.89 80.08">
    <defs>
        <style>
            .cls-1 {
                fill: none;
                stroke: #ec7600;
                stroke-linecap: square;
                stroke-miterlimit: 10;
                stroke-width: 2.63px;
            }
        </style>
    </defs>
    <g id="Layer_2" data-name="Layer 2">
        <g id="Icons">
            <g id="_9" data-name="9">
                <polyline class="cls-1"
                    points="40.05 32.8 37.03 35.82 32.83 40.02 28.63 44.23 20.22 35.82 16.02 40.02 24.42 48.43 28.63 52.63 32.83 48.43 37.03 44.23 41.23 40.02 45.44 35.82 47.87 33.39 43.67 29.18" />
                <path class="cls-1"
                    d="M52.69,8.86A33.59,33.59,0,0,1,38.23,5.67,28.69,28.69,0,0,1,32,1.73a28.69,28.69,0,0,1-6.28,3.94A33.59,33.59,0,0,1,11.21,8.86H1.32V46a24.09,24.09,0,0,0,7.31,17.3C15.5,70,32,78.6,32,78.6S48.4,70,55.27,63.33A24.09,24.09,0,0,0,62.58,46V8.86Z" />
                <path class="cls-1"
                    d="M54.58,22V46A16.15,16.15,0,0,1,49.7,57.58C45.39,61.74,35.57,67.44,32,69.48c-3.63-2-13.46-7.75-17.76-11.91A16.1,16.1,0,0,1,9.32,46V16.86h1.89a42,42,0,0,0,17.9-4c1-.46,1.93-1,2.84-1.48.91.52,1.87,1,2.86,1.49a41.75,41.75,0,0,0,17.88,4h1.89" />
            </g>
        </g>
    </g>
</svg>