<svg xmlns="http://www.w3.org/2000/svg" viewBox="0 0 67.93 67.93">
    <defs>
        <style>
            .cls-1 {
                fill: none;
                stroke: #ec7600;
                stroke-miterlimit: 10;
                stroke-width: 2.63px;
            }
        </style>
    </defs>
    <g id="Layer_2" data-name="Layer 2">
        <g id="Icons">
            <g id="_19" data-name="19">
                <circle class="cls-1" cx="33.96" cy="33.96" r="20.24" />
                <circle class="cls-1" cx="33.96" cy="33.96" r="32.65" />
                <line class="cls-1" x1="65.64" y1="28.15" x2="52.6" y2="28.15" />
                <line class="cls-1" x1="65.64" y1="39.77" x2="56.61" y2="39.77" />
                <line class="cls-1" x1="11.32" y1="28.15" x2="2.28" y2="28.15" />
                <line class="cls-1" x1="15.31" y1="39.77" x2="2.28" y2="39.77" />
                <line class="cls-1" x1="39.77" y1="65.64" x2="39.77" y2="52.6" />
                <line class="cls-1" x1="28.15" y1="65.64" x2="28.15" y2="56.61" />
                <line class="cls-1" x1="39.77" y1="11.32" x2="39.77" y2="2.28" />
                <line class="cls-1" x1="28.15" y1="15.31" x2="28.15" y2="2.28" />
                <path class="cls-1"
                    d="M63.46,12.67h0a2.72,2.72,0,0,0,0-3.86L59.11,4.45a2.74,2.74,0,0,0-3.86,0L52.57,7.13" />
                <path class="cls-1"
                    d="M4.47,55.23h0a2.72,2.72,0,0,0,0,3.86l4.35,4.36a2.72,2.72,0,0,0,3.86,0l2.68-2.68" />
                <path class="cls-1"
                    d="M55.25,63.45h0a2.72,2.72,0,0,0,3.86,0l4.35-4.36a2.72,2.72,0,0,0,0-3.86l-2.67-2.67" />
                <path class="cls-1"
                    d="M12.68,4.45h0a2.74,2.74,0,0,0-3.86,0L4.47,8.81a2.72,2.72,0,0,0,0,3.86l2.67,2.68" />
            </g>
        </g>
    </g>
</svg>