<svg xmlns="http://www.w3.org/2000/svg" viewBox="0 0 286.2 290.68"><defs><style>.cls-1{fill:#3892e0;}.cls-2{fill:#dff3fa;}.cls-3{fill:#fff;}.cls-4{fill:none;stroke:#256093;stroke-width:5px;}</style></defs><g id="Layer_2" data-name="Layer 2"><g id="Layer_4" data-name="Layer 4"><path class="cls-1" d="M57.9,25.94,29.49,54.33,52.64,81.69A108.72,108.72,0,0,0,36.8,117.44L0,120.51v40.16l35.7,3a108.64,108.64,0,0,0,14.1,36.46l-23.86,28.2,28.4,28.4,27.35-23.14a108.88,108.88,0,0,0,35.75,15.83l46.21,1.11a108.92,108.92,0,0,0,36.47-14.11l28.19,23.86,28.41-28.4-23.15-27.35a108.28,108.28,0,0,0,15.83-35.75l36.8-3.07V125.53l-35.69-3a108.56,108.56,0,0,0-14.1-36.46l23.85-28.2-28.4-28.41L204.51,52.63A108.49,108.49,0,0,0,168.76,36.8L165.7,0H125.53l-3,35.69a109,109,0,0,0-36.46,14.1ZM174.61,111.6a44.55,44.55,0,1,1-63,0A44.54,44.54,0,0,1,174.61,111.6Z"/><polygon class="cls-2" points="186.54 286.88 143.1 268.13 99.66 286.88 99.66 179.03 186.54 179.03 186.54 286.88"/><polygon class="cls-2" points="186.54 286.88 143.1 268.13 99.66 286.88 99.66 179.03 186.54 179.03 186.54 286.88"/><polygon class="cls-3" points="186.54 286.88 143.1 268.13 99.66 286.88 99.66 179.03 186.54 179.03 186.54 286.88"/><polygon class="cls-4" points="186.54 286.88 143.1 268.13 99.66 286.88 99.66 179.03 186.54 179.03 186.54 286.88"/><path class="cls-2" d="M231.39,141c0,9.44-3.11,18.27-5.87,26.78-2.87,8.83-5.64,17.78-11,25.12s-13.1,12.8-20.51,18.2-14.81,11-23.64,13.9c-8.51,2.76-17.85,2.64-27.29,2.64s-18.78.12-27.29-2.64c-8.82-2.87-16.29-8.55-23.63-13.9s-15.11-10.78-20.51-18.2-8.12-16.29-11-25.12c-2.76-8.51-5.87-17.34-5.87-26.78s3.11-18.26,5.87-26.78c2.87-8.82,5.64-17.77,11-25.12S84.76,76.31,92.18,70.91,107,59.88,115.81,57c8.51-2.76,17.86-2.64,27.29-2.64s18.78-.12,27.29,2.64c8.83,2.87,16.29,8.55,23.64,13.9s15.11,10.78,20.51,18.2,8.11,16.29,11,25.11C228.28,122.74,231.39,131.57,231.39,141Z"/><path class="cls-3" d="M231.39,141c0,9.44-3.11,18.27-5.87,26.78-2.87,8.83-5.64,17.78-11,25.12s-13.1,12.8-20.51,18.2-14.81,11-23.64,13.9c-8.51,2.76-17.85,2.64-27.29,2.64s-18.78.12-27.29-2.64c-8.82-2.87-16.29-8.55-23.63-13.9s-15.11-10.78-20.51-18.2-8.12-16.29-11-25.12c-2.76-8.51-5.87-17.34-5.87-26.78s3.11-18.26,5.87-26.78c2.87-8.82,5.64-17.77,11-25.12S84.76,76.31,92.18,70.91,107,59.88,115.81,57c8.51-2.76,17.86-2.64,27.29-2.64s18.78-.12,27.29,2.64c8.83,2.87,16.29,8.55,23.64,13.9s15.11,10.78,20.51,18.2,8.11,16.29,11,25.11C228.28,122.74,231.39,131.57,231.39,141Z"/><path class="cls-4" d="M231.39,141c0,9.44-3.11,18.27-5.87,26.78-2.87,8.83-5.64,17.78-11,25.12s-13.1,12.8-20.51,18.2-14.81,11-23.64,13.9c-8.51,2.76-17.85,2.64-27.29,2.64s-18.78.12-27.29-2.64c-8.82-2.87-16.29-8.55-23.63-13.9s-15.11-10.78-20.51-18.2-8.12-16.29-11-25.12c-2.76-8.51-5.87-17.34-5.87-26.78s3.11-18.26,5.87-26.78c2.87-8.82,5.64-17.77,11-25.12S84.76,76.31,92.18,70.91,107,59.88,115.81,57c8.51-2.76,17.86-2.64,27.29-2.64s18.78-.12,27.29,2.64c8.83,2.87,16.29,8.55,23.64,13.9s15.11,10.78,20.51,18.2,8.11,16.29,11,25.11C228.28,122.74,231.39,131.57,231.39,141Z"/><circle class="cls-1" cx="143.1" cy="141" r="65.88"/><polygon class="cls-3" points="143.1 105.95 154.49 129.03 179.96 132.73 161.53 150.69 165.88 176.06 143.1 164.08 120.32 176.06 124.67 150.69 106.24 132.73 131.71 129.03 143.1 105.95"/></g></g></svg>